<?xml version="1.0" encoding="utf-8"?>
<!-- Generator: Adobe Illustrator 28.1.0, SVG Export Plug-In . SVG Version: 6.00 Build 0)  -->
<svg version="1.1" id="Layer_1" xmlns="http://www.w3.org/2000/svg" xmlns:xlink="http://www.w3.org/1999/xlink" x="0px" y="0px"
	 viewBox="145 40 350.28 350.16" xml:space="preserve">
<style type="text/css">
	.st0{fill:none;stroke:#000000;stroke-linecap:round;stroke-linejoin:round;stroke-miterlimit:10;}
	.st1{fill:none;stroke:#000000;stroke-width:2;stroke-linecap:round;stroke-linejoin:round;stroke-miterlimit:10;}
	.st2{fill:#FFFFFF;stroke:#000000;stroke-miterlimit:10;}
	.st3{clip-path:url(#SVGID_00000142178407593609991710000004181157642810181300_);}
	.st4{fill:#FFFFFF;}
	.st5{fill:none;stroke:#FFFFFF;stroke-linecap:round;stroke-linejoin:round;stroke-miterlimit:10;}
	.st6{fill:none;stroke:#FFFFFF;stroke-width:2;stroke-linecap:round;stroke-linejoin:round;stroke-miterlimit:10;}
	.st7{clip-path:url(#SVGID_00000157999536193147504310000003194164461291459227_);}
	.st8{fill:#B88934;}
	.st9{fill:url(#SVGID_00000147196179335924613620000006436921059350803862_);}
	.st10{fill:url(#SVGID_00000152953838494215218690000005416543451993303721_);}
	.st11{opacity:0.2;fill:#FFFFFF;}
	.st12{opacity:0.48;}
	
		.st13{clip-path:url(#SVGID_00000037690642662630370670000008535210785008000182_);fill:url(#SVGID_00000071555959576583226000000011311597138459056518_);}
	.st14{clip-path:url(#SVGID_00000039131598004246144730000007308249846309071280_);}
	.st15{clip-path:url(#SVGID_00000124124742936285824630000001180553916229125560_);fill:#F05023;}
	.st16{fill:url(#SVGID_00000045594005882694752210000016461428446295722926_);}
	.st17{fill:url(#SVGID_00000093892314050219908800000010335677479234324885_);}
</style>
<g>
	<g>
		<path d="M293.54,126.95c-2.74-5.21-4.12-14.05,0.94-18.36c3.29-2.42,7.6-2.41,11.39-2.66c7.78-0.17,18.42-0.77,17.51,10.09
			c-0.06,2.54-0.32,5.12-1.21,7.5c0.46-2.48,0.44-4.99,0.23-7.46c-0.19-2.31-0.47-4.87-2.36-6.33c-4.07-2.64-9.42-1.77-14.09-1.8
			c-3.57,0.21-7.4,0.12-10.42,2.06C291.01,113.67,291.9,121.88,293.54,126.95L293.54,126.95z"/>
	</g>
	<g>
		<path d="M309.98,142.1c-0.34-3.16-0.57-6.33-0.86-9.5c-0.01-0.14,0.05-0.27,0.15-0.36c3.02-2.48,6.64-4.8,10.73-4.48
			c1.37,0.1,2.65,0.38,3.99,1c0.27,0.13,0.44,0.38,0.47,0.67c0.36,4.28,0.34,8.51-0.49,12.75c-1.14,5.31-5.11,10.24-10.3,12.09
			c-7.62,1.89-15.13-4.76-17-11.73c1.66,3.75,4.4,7.04,8.06,8.89c3.47,1.78,7.67,2.47,10.94-0.11c3.06-2.32,5.63-5.69,6.35-9.56
			c0.82-3.9,0.84-8.08,0.66-12.13l0.47,0.72c-4.46-2.33-9.5-0.16-13.27,2.6c0,0,0.18-0.39,0.18-0.39
			C310.03,135.74,310.06,138.92,309.98,142.1L309.98,142.1z"/>
	</g>
	<g>
		<path d="M293.64,129.68c0.33,0.7,0.96,1.64,1.79,1.6c0.91-0.08,1.04-0.79,1.07-1.59c-0.34-5.3,1.65-7.45,6.99-7.62
			c1.93-0.02,3.79,0.14,5.68,0.55l-0.49,0.02c3.15-0.82,6.19-1.61,9.53-1.26c0.94,0.15,1.84,0.52,2.44,1.3
			c0.65,0.82,0.61,1.84,0.74,2.42c0.11,0.67,0.86,0.84,1.46,0.91c0.69,0.06,1.41-0.37,1.73-1.1c-0.25,1.9-3.35,2.28-4.05,0.5
			c-0.35-1.04-0.45-2.02-1.57-2.38c-0.3-0.1-0.61-0.15-0.91-0.17c-3.05-0.1-6.26,1.14-9.25,1.69c-3.03-0.45-7.31-1.29-9.83,0.58
			c-1.69,1.52-0.78,4.29-2.02,6.15C295.49,132.76,293.86,131.35,293.64,129.68L293.64,129.68z"/>
	</g>
	<g>
		<path d="M309.07,116.26c-1.48,0.51-0.74,2.31,0.34,2.66c1.03,0.42,2.39,0.01,2.83-0.78c0.92-1.76,0.21-4.73-2.3-4.6
			c-1.2-0.11-2.42,0.03-3.27,0.64c-1.72,1.05-1.87,3.66-1.08,5.42c0.72,1.45,2.07,2.46,3.35,3.54c-1.29-0.49-2.52-1.14-3.62-2.12
			c-1.1-1.04-1.7-2.59-1.73-4.12c-0.28-4.62,5.31-6.7,8.91-4.63c2.91,1.82,2.5,7.54-1.21,7.99c-0.81,0.09-1.64-0.05-2.34-0.48
			C307.57,119.02,307.1,116.42,309.07,116.26L309.07,116.26z"/>
	</g>
	<g>
		<path d="M308.07,101.5c1.52-0.22,1.14-2.08,0.17-2.62c-0.91-0.6-2.29-0.44-2.86,0.23c-1.2,1.52-1.08,4.49,1.35,4.83
			c1.13,0.33,2.33,0.42,3.26-0.01c1.85-0.69,2.48-3.16,2.05-5c-0.42-1.53-1.53-2.76-2.56-4.04c1.16,0.71,2.23,1.56,3.1,2.71
			c0.87,1.21,1.16,2.82,0.91,4.3c-0.61,4.52-6.37,5.48-9.48,2.81c-2.48-2.31-1.01-7.76,2.67-7.5c0.8,0.07,1.58,0.36,2.17,0.91
			C310.05,99.1,309.97,101.73,308.07,101.5L308.07,101.5z"/>
	</g>
	<g>
		<path d="M305,145.21c1.08,1.66,2.69-0.6,4.07-0.69c0.37-0.03,0.88,0.2,1.22,0.28c0,0-0.38,0.03-0.38,0.03
			c0.77-0.37,1.8-0.72,2.6-0.38c1.09,0.25,2.39,1.79,3.3,0.51c-0.46,2-3,0.17-4.12,0.3c-0.56,0.02-1.24,0.57-1.7,0.48
			c0,0-0.68-0.23-0.68-0.23c-0.57-0.14-1.08,0.33-1.71,0.51C306.74,146.41,305.05,146.49,305,145.21L305,145.21z"/>
	</g>
	<g>
		<path d="M307.74,147.22c0.88,0.61,1.81,0.58,2.81,0.53c1.01-0.08,1.93-0.19,2.83-0.76C312.76,149.14,308.4,149.49,307.74,147.22
			L307.74,147.22z"/>
	</g>
	<circle class="st0" cx="312.05" cy="140.19" r="0.96"/>
	<g>
		<path d="M325.4,127.45c1.48,0.17,2.79,1.53,2.59,3.1c-0.2,1.47-0.88,2.53-1.06,3.92c-0.48,2.37,0.33,4.64,2.95,4.83
			c2.19,0.46,3.93-2.03,3.43-3.99c-0.32-0.97-1.33-1.84-2.35-1.56c-1.46,0.32-1.77,1.51-0.93,2.71c-0.91-0.65-1.37-2.07-0.37-2.97
			c2.46-2.52,6.24,0.74,5.34,3.71c-0.34,1.57-1.28,3.14-2.87,3.78c-2.35,0.89-5.33-0.02-6.51-2.29c-0.72-1.46-0.63-3.11-0.2-4.58
			C326.07,131.54,328.86,129.31,325.4,127.45L325.4,127.45z"/>
	</g>
	<g>
		<path d="M331.85,140.34c-3.43,0.55-8.49,2.39-7.18,6.69c0.3,1.17,0.91,2.2,1.83,2.68c1.74,0.96,4.96,0.62,5.68-1.63
			c0.38-1.06,0.19-2.21-0.89-2.9c-0.48-0.36-1.04-0.56-1.59-0.34c-0.56,0.21-1.04,0.76-1.37,1.37c0.28-1.7,1.82-2.75,3.45-1.88
			c3.58,1.58,1.95,6.97-1.51,7.58c-2.21,0.65-5.3,0.03-6.55-2.22c-1.23-2.06-1.54-4.85,0.04-6.85
			C325.75,140.4,329,140.04,331.85,140.34L331.85,140.34z"/>
	</g>
	<g>
		<path d="M296.01,131.56c-3.3,2.15-0.33,4.12,0.52,6.65c0.92,2.15,0.74,5.15-1.41,6.55c-3.02,2.13-6.91,0.94-7.88-2.69
			c-1.14-2.89,2.36-6.45,5.02-4.14c1.06,0.81,0.72,2.27-0.13,2.99c0.74-1.27,0.33-2.43-1.14-2.63c-1.04-0.2-1.98,0.75-2.22,1.75
			c-0.34,2,1.6,4.34,3.74,3.7c2.59-0.41,3.22-2.73,2.54-5.06c-0.29-1.37-1.06-2.37-1.37-3.82
			C293.34,133.32,294.55,131.85,296.01,131.56L296.01,131.56z"/>
	</g>
	<g>
		<path d="M293.57,144.91c4.95-1.49,7.69,6.55,2.74,8.31c-1.76,0.73-4.16-0.49-4.29-2.49c0.03-0.95,0.74-1.57,1.52-1.86
			c-0.99,1.28-0.73,2.17,0.68,2.72c0.89,0.33,1.99-0.29,2.5-1.14c0.54-0.87,0.25-2.3-0.13-3.24
			C296.06,145.96,294.89,145.3,293.57,144.91L293.57,144.91z"/>
	</g>
	<g>
		<path d="M293.57,144.91c-3.34,1.76-2.86,6.16-5.18,8.82c-1.06,1.28-2.85,1.95-4.51,1.68c-2.66-0.06-4.8-2.3-4.71-4.98
			c-0.05-1.63,0.6-3.63,2.21-4.27c1.92-1,4.57-0.04,4.89,2.22c0.32,1.33-0.92,2.25-2.06,2.24c0.64-0.24,1.26-0.68,1.39-1.23
			c0.13-0.53-0.17-1.1-0.56-1.58c-0.69-0.88-2.05-0.83-2.94-0.28c-1.03,0.64-1.1,1.74-1.05,2.83c0.02,2.26,1.89,3.27,3.88,3.14
			c1.49,0.02,2.54-1.23,3.24-2.44C289.5,148.85,290.58,145.38,293.57,144.91L293.57,144.91z"/>
	</g>
	<g>
		<path d="M336.38,141.75c-1.54,2.02-3.8,0.52-3.96-1.65c0.05-2.97,3.84-4.45,6.23-3.05c4.85,2.5,2.44,9.65-2.67,9.54
			c-1.18-0.02-2.27-0.32-3.28-0.77c1.11,0.02,2.19,0.04,3.18-0.21c3.22-0.52,5.02-5.11,1.81-6.86c-1.05-0.61-2.51-0.43-3.4,0.41
			C332.93,140.01,334.12,143.36,336.38,141.75L336.38,141.75z"/>
	</g>
	<g>
		<path d="M323.59,146.58c0.2,4.68-1.04,9.58-4.18,13.2c-3.14,3.77-8.24,4.72-12.69,6.02c-5.67,1.83-14.48,3.78-14.6,11.04
			c0.03,2.2,0.52,4.39,1.67,6.06c2.44,3.43,8.04,3.41,11.56,1.85c3.77-1.64,4.95-7.58,2.23-10.55c-1.38-1.51-3.64-2.13-5.78-1.93
			c-3.42,0.12-5.39,4.06-3.62,6.92c1.14,1.97,4.2,2.16,5.33,0.07c0.63-1.05-0.29-2.22-1.18-2.8c2.01,1.07,2.16,3,0.25,4.3
			c-1.62,1.1-3.94,0.42-5.02-1.14c-2.44-3.45-0.08-8.27,4.09-8.65c3.7-0.67,8.17,1.57,8.91,5.57c0.8,3.79-0.74,8.18-4.36,9.91
			c-3.52,1.59-7.53,1.72-11.03,0.16c-3.64-1.66-5.04-6.12-5.01-9.73c-0.25-5.41,4.88-8.94,9.38-10.52c4.38-1.7,9.05-2.46,13.48-3.81
			C319.88,160.59,323.38,153.31,323.59,146.58L323.59,146.58z"/>
	</g>
	<g>
		<path d="M312.9,170.25c-2.83,1.1-4.35-1.49-3.38-4.01c2.16-4.09,8.63-2.22,9.27,2.06c0.33,1.47,0.34,3.16-0.48,4.63
			c-1.57,2.59-5.29,3.9-8.08,2.66c-1.34-0.63-2.34-1.64-3.2-2.7c1.15,0.73,2.3,1.48,3.53,1.77c2.21,0.55,4.97-0.67,6.07-2.62
			c0.48-0.93,0.5-2.15,0.21-3.28c-0.25-1.17-0.74-1.98-1.78-2.55c-1.53-0.9-4.27-0.68-4.67,1.36
			C309.93,169.48,311.04,170.33,312.9,170.25L312.9,170.25z"/>
	</g>
	<g>
		<path d="M319.12,159.39c2.17-0.71,4.58-1.53,6.23-3.07c1.6-1.68,3.12-3.59,4.58-5.41c0.3-0.39,0.86-0.46,1.25-0.16
			c1.32,1.21,2.58,2.49,3.86,3.74c3.74,3.71,7.38,7.5,10.85,11.47c0.18,0.21,0.16,0.52-0.05,0.7c-1.46,1.29-2.94,2.57-4.48,3.79
			c1.19-1.56,2.45-3.06,3.71-4.54l0,0.76c-3.96-3.45-7.74-7.06-11.44-10.77c-1.22-1.25-2.46-2.47-3.65-3.75l1.35-0.07
			c-1.64,1.85-3.25,3.61-5.17,5.18C324.07,158.78,321.6,159.2,319.12,159.39L319.12,159.39z"/>
	</g>
	<g>
		<path d="M334.84,173.48c5.12,4.87,9.83,10.26,15.66,14.24c3.07,1.34,6.12,3.19,9.3,2.21c0,0,0.16-0.04,0.16-0.04
			c0.06-0.01,0.1-0.03,0.09-0.03c0.01-0.02,0.01,0,0.04-0.03c1.57-1.42,2.2-3.65,2.91-5.84c3.61-12.92,1.73-27.07-4.54-38.92
			c-1.3-2.66-3.29-4.85-4.82-7.4c-0.49-0.87-0.94-1.87-0.86-2.88c0.4,1.98,2.07,3.26,3.38,4.67c1.43,1.36,2.82,2.94,3.98,4.58
			c8.22,11.77,10.78,27.3,6.61,41.07c-1.06,3.08-2.25,7.02-5.69,8.26c-2.27,0.65-5.19,0.43-7.29-0.63
			c-1.72-0.82-3.25-1.56-4.85-2.55C343.19,185.62,338.95,179.47,334.84,173.48L334.84,173.48z"/>
	</g>
	<g>
		<path d="M355.24,157.28c3.06-2.65,6.28-5.06,9.54-7.43c0.7-0.46,1.33,0.26,1.82,0.71c0.36,0.43,0.68,0.88,0.54,1.6
			c-0.2,0.8-1.1,1.21-1.67,1.7c0,0-2.92,2.06-2.92,2.06c-1.96,1.34-3.94,2.66-5.95,3.92c0,0,0.39-0.87,0.39-0.87
			c0.01,0.17,0.15,0.54,0.27,0.62c0.03,0.08,0.47-0.06,0.97-0.31c2.98-1.56,5.88-3.37,8.89-4.94c-2.69,2.39-5.43,4.68-8.52,6.56
			c-1.5,1.01-3.16,0.05-3.4-1.69c-0.06-0.33,0.08-0.64,0.33-0.83c0.98-0.71,1.98-1.41,2.98-2.09c1.97-1.38,4.59-3.12,6.59-4.48
			c0,0,0.31-0.22,0.31-0.22l0.07-0.05c-0.01,0.01-0.03,0.02-0.03,0.03c0,0.02-0.06,0.09-0.06,0.15c-0.01,0.32,0.05,0.15-0.1,0.01
			c-0.12-0.15-0.32-0.33-0.48-0.45c0,0,0.96,0,0.96,0C362.3,153.41,358.85,155.46,355.24,157.28L355.24,157.28z"/>
	</g>
	<g>
		<path d="M396.83,134.02c0.78-4.42-2.66-8.68-7.2-6.09c-2.98,1.78-7.27,5.26-10.18,7.33c-33.46,25.06-67.73,50.29-101.53,74.77
			c-13.59,9.9-27.26,19.69-40.9,29.51l0.6-2.4c4.56,8.53,12.49,16.91,22.7,17.15c9.63,0.01,20.39-5.96,22.15-16.1
			c0.87-4.07,0.46-8.58-0.09-12.79c-0.18-2.35-0.48-5.34-0.56-7.68c-0.01-0.22-0.01-0.36,0.04-0.59c-0.2,0.61,0.08-1.58,1.87-0.22
			l-1.49-0.35l16.45-11.71c1.12-0.45,2.31,0.55,2.65,1.4c0.39,0.84,0.47,1.71,0.47,2.54c-0.09,2.35-0.03,5.3-2.04,6.96
			c-1.64,1.33-5.07,0.25-4.37-2.15c0.15-0.39,0.54-0.66,0.94-0.67c-0.89,0.08-1.14,1.14-0.78,1.83c0.66,1.47,2.82,1.57,3.94,0.63
			c0.57-0.47,0.91-1.18,1.12-1.92c0.41-1.73,1.19-7.69-1.51-7.69c0,0,0.22-0.1,0.22-0.1l-15.89,12.47c0,0-1.49-0.35-1.49-0.35
			c1.78,1.34,2.05-0.82,1.85-0.2c0-0.03,0.02-0.11,0.02-0.14c0,0,0,0.04,0,0.04s0.01,0.13,0.01,0.13l0.03,0.31
			c0.21,2.15,0.63,5.03,0.92,7.18c2.54,13.2-0.27,24.53-13.56,30.17c-11.22,5.21-22.68,1.59-30.66-7.39
			c-2.51-2.76-4.63-5.68-6.4-9.09c-0.44-0.85-0.16-1.88,0.6-2.4c40.78-29.68,81.77-59.09,123.19-87.87
			c8.56-5.98,17.36-11.95,26.01-17.83c2.69-1.63,5.2-4.2,8.56-4.11C396.03,126.82,397.64,131.03,396.83,134.02L396.83,134.02z"/>
	</g>
	<g>
		<path d="M255.98,231.69c-0.58-3.66-0.89-7.36-0.91-11.08c0.02-2.8,0.15-5.78,1.33-8.39c3.95-7.44,9.52-13.79,14.9-20.2
			c0,0-0.21,0.41-0.21,0.41c1.1-4.43,2.22-8.85,3.39-13.27c1.47-5.53,2.89-11.06,4.62-16.54c2.95-8.62,13.2-9.64,20.98-9.56
			c0,0-0.16,0.13-0.16,0.13l1.25-3.66c0,0-0.91,3.76-0.91,3.76c-0.02,0.08-0.09,0.13-0.16,0.13c-6.38,0.56-14.11,1.24-18.07,6.86
			c-1.27,1.82-1.68,4-2.27,6.13c0,0-6.78,26.51-6.78,26.51c-0.04,0.15-0.12,0.29-0.21,0.41c-2.42,2.76-4.82,5.57-7.15,8.41
			c-3.06,3.95-6.5,7.71-8.56,12.27C255.34,219.67,255.76,225.8,255.98,231.69L255.98,231.69z"/>
	</g>
	<g>
		<path d="M310.53,162.37c-5.44,2.19-10.9-3.86-10.44-9.14C302.67,157.54,305.42,161.4,310.53,162.37L310.53,162.37z"/>
	</g>
	<g>
		<path d="M296.14,153.63c-0.58,1.57-0.92,3.73,1.25,3.77c0.55,0.02,0.83,0.65,0.56,1.1c-1.07,2.72,0.36,3.06,2.76,2.9
			c0.53-0.03,0.99,0.37,1.02,0.9c-0.1,0.72-0.01,2.08,0.27,2.13c0.4,0.36,1.35,0.45,2.26,0.38c1.87-0.17,3.82-0.73,5.79-1.26
			c-0.8,0.64-1.69,1.17-2.6,1.65c-2.21,1.18-6.97,2.64-7.64-1.15c-0.1-0.62-0.11-1.15-0.06-1.77l1.1,1.1
			c-3.86,0.49-6.42-1.92-4.19-5.6c0,0,0.56,1.1,0.56,1.1C294.25,158.29,294.35,155.48,296.14,153.63L296.14,153.63z"/>
	</g>
	<g>
		<path d="M289.47,156.18c2.67,3.94,5.82,7.28,8.01,11.51C293.26,165.39,289.56,161.18,289.47,156.18L289.47,156.18z"/>
	</g>
	<g>
		<path d="M283.45,169.27c0.4,0.62,0.21,1.48-0.21,2.07c-0.84,1.03-2.56,0.63-3.34-0.32c-1.86-2.84,1.95-6.18,4.81-5.21
			c2.62,0.66,4.52,4.14,2.33,6.29c-1.52,1.55-3.97,1.71-5.48,2.88c-0.88,0.65-1.45,1.85-1.89,3.08c-0.44,1.23-0.71,2.55-0.85,3.91
			c-0.51-2.72-0.32-6.03,1.71-8.16c1.1-1.05,2.44-1.52,3.73-2.16c1.16-0.49,1.87-1.2,1.74-1.97c-0.03-0.81-0.91-1.76-1.84-2.06
			c-1.42-0.54-3.28,0.61-3.44,2.1c-0.17,0.95,1.36,1.85,2.12,1.24C283.27,170.59,283.64,169.86,283.45,169.27L283.45,169.27z"/>
	</g>
	<g>
		<path d="M285.05,177.3c0.49-0.63-0.09-1.04-0.68-1.12c-0.78,0.01-1.32,1.03-1.11,1.65c0.48,1.97,3.74,1.79,4.11-0.22
			c1.13-2.61-1.8-3.95-3.9-4.6c1.93-0.25,4.13,0.06,5.36,1.88c0.81,1.29,0.57,2.75,0.11,4.02c-0.79,2.03-3.38,2.78-5.26,1.92
			c-2.42-0.92-2.78-4.86,0.01-5.48C284.73,175.04,286.34,176.55,285.05,177.3L285.05,177.3z"/>
	</g>
	<g>
		<path d="M288.95,187.64c-2.74-0.98-5.69-3.2-8.28-4.36c-1.81-0.4-3.71-0.36-5.63-0.69c1.88-0.89,3.87-1.37,5.98-1.17
			C284.36,182.42,286.92,184.92,288.95,187.64L288.95,187.64z"/>
	</g>
	<g>
		<path d="M272.99,207.66c-3.75-2.62-7.31-5.45-10.83-8.35c0,0,1.17-0.02,1.17-0.02l-1.42,1.41l-0.02-1.35
			c1.69,1.44,3.33,2.94,4.99,4.4c1.63,1.51,3.29,2.98,4.88,4.52c0.39,0.34,0.42,0.93,0.06,1.3c-0.02,0.02-0.05,0.05-0.07,0.07
			l-1.86,1.53l-0.04,0.03c-0.32,0.27-0.79,0.24-1.09-0.04c-3.12-3.01-6.21-6.04-9.09-9.28c3.54,2.51,6.9,5.24,10.23,8.01
			c0,0-1.13-0.01-1.13-0.01l1.78-1.63l-0.01,1.37c-1.7-1.43-3.33-2.93-5-4.4c-1.63-1.51-3.28-2.98-4.89-4.52
			c-0.39-0.34-0.42-0.93-0.06-1.3c0,0,0.05-0.04,0.05-0.04l1.49-1.34c0,0,0.03-0.03,0.03-0.03c0.33-0.3,0.82-0.29,1.14,0
			c0.84,0.77,1.65,1.56,2.48,2.35C268.25,202.72,270.68,205.12,272.99,207.66L272.99,207.66z"/>
	</g>
	<g>
		<path d="M248.08,250.96c11.23-8.41,22.82-16.33,34.49-24.11c0.55-0.38,1.36-0.06,1.5,0.59c0.48,2.64,1.51,5.82,0.11,8.37
			c-0.26,0.28-0.8,0.79-1.09,1.02c-3.03,2.43-6.17,4.69-9.32,6.93c-5.58,3.97-11.25,7.81-17.02,11.5
			c4.58-3.76,11.36-9.05,16.1-12.75c3.17-2.51,6.42-4.91,9.46-7.53c0.6-0.46,0.61-1.15,0.61-2.2c-0.06-1.57-0.38-3.26-0.77-4.84
			c0,0,1.52,0.58,1.52,0.58C271.96,236.26,260.18,243.88,248.08,250.96L248.08,250.96z"/>
	</g>
	<g>
		<path d="M283.65,253.84c8.55,2.17,16.9,5.63,24.22,10.65c7.02,5.15,14.87,9.37,23.08,12.23c11.1,3.94,22.94,4.94,32.18-3.51
			c3.63-3.35,5.04-8.5,4.63-13.33c-0.49-3.45-2.54-6.59-5.14-8.88c-2.6-2.33-6.26-3.79-9.63-2.54c0,0-1.03,0.32-1.03,0.32
			l-0.97,0.45c-4.77,2.11-4.54,6.99-2.01,10.88c-0.88-1.18-1.55-2.52-1.95-3.96c-1.12-4.31,1.81-7.23,5.68-8.51
			c5.28-2.17,10.87,1.49,13.89,5.68c1.61,2.16,2.73,4.81,2.88,7.53c0.23,4.98-1.34,10.2-5.02,13.71
			c-9.89,9.18-22.33,8.24-34.14,3.94c-8.36-3.05-16.22-7.46-23.21-12.95C300.04,260.33,291.99,256.59,283.65,253.84L283.65,253.84z"
			/>
	</g>
	<g>
		<path d="M331.07,175.48c-0.7-1.09-2.21-1.42-3.19-0.51c-0.83,0.84-1.16,2.14-1.4,3.34c-0.45,2.45-0.43,4.99,0.02,7.43
			c0.64,3.73,2.23,7.04,4.56,10c0,0,2.27,3.06,2.27,3.06c8.44,12.07,20.92,27.01,15.1,42.65c-1.82,5.08-5.17,9.57-9.26,13.06
			c-4.11,3.44-9.07,6.05-14.66,6.76c-12.37,1.78-26.44-7.93-25.67-21.21c0.5-7.28,6.33-13.23,13.04-15.37
			c5.57-1.55,11.92,0.09,15.71,4.64c4.24,5.9,3.01,15.18-3.04,19.28c-3.69,2.17-8.76,2.64-12.24-0.17
			c-4.77-3.87-4.8-11.74,1.28-14.2c2.59-1,5.71-0.88,7.93,0.98c1.93,1.99,2.13,5.6,0.16,7.56c-0.99,0.93-2.5,1.35-3.76,0.84
			c-1.29-0.46-1.92-1.91-1.68-3.2c-0.29,2.99,3.19,4.01,5.02,1.93c1.53-1.65,1.15-4.9-0.47-6.3c-0.84-0.7-2.02-0.96-3.21-1.02
			c-3.39-0.35-6.9,2.48-6.77,5.89c0.4,6.62,6.99,8.72,12.24,5.38c4.44-3.11,5.15-10.74,1.95-14.85c-1.33-1.61-3.4-2.75-5.53-3.34
			c-7.54-2.19-16.2,4.62-16.73,12.22c-0.41,10.81,11.3,18.4,21.37,17.06c4.64-0.54,9.03-2.85,12.67-5.78
			c7.27-5.9,11.5-15.11,9.32-24.43c-3.35-12.54-11.96-22.76-18.45-33.78c-2.46-4.96-3.11-10.87-1.43-16.15
			c0.35-0.84,0.73-1.93,1.53-2.51C328.8,173.87,330.44,174.25,331.07,175.48L331.07,175.48z"/>
	</g>
	<g>
		<path d="M236.81,250.93c-0.65,5.24-0.49,10.69,1.35,15.42c1.91,4.69,5.97,8.23,10.02,11.14c6.35,4.42,13.69,6.94,21.37,7.73
			c9.23,0.98,30.62,3.25,32.87-8.86c0.04-0.49,0.27-1.38,0.26-1.83c0.17-5.16-6.13-9.49-10.95-7.94c-2.01,0.74-3.07,4.25-1.08,5.64
			c0.46,0.33,1.13,0.51,1.56,0.1c0.68-0.57,0.53-1.04-0.37-1.11c1.04-0.09,1.27,0.58,0.6,1.33c-0.5,0.64-1.46,0.54-2.1,0.2
			c-2.87-1.59-1.98-6.22,0.71-7.56c5.64-2.52,12.55,1.38,14.32,7.08c0.99,4.36-0.45,9.64-4.1,12.44
			c-7.97,6.18-18.72,5.58-28.19,4.85c-12.28-0.77-24.72-5.6-32.68-15.3C234.72,268,234.47,258.64,236.81,250.93L236.81,250.93z"/>
	</g>
	<path class="st1" d="M310.87,288.03c0,0,1.14-2.02-0.82-2.52c-1.36-0.35-2.76,0.95-2.29,3.47c0.47,2.52,3.33,4.16,7.05,3.53
		c4.38-0.75,6.88-6.83,4.08-10.84c-2.8-4.01-6.07-4.15-9.38-4.1c-2.55,0.04-6.4,2.09-6.4,2.09"/>
	<g>
		<path d="M335.87,150.51c-0.78-1.03-0.01-2.07,1.18-2.15c1.84-0.12,2.68,2.17,2,3.63c-1.28,2.82-5.27,2.44-6.14-0.51
			c-0.51-1.56,0.36-3.07,1.53-3.93c-0.64,1.86-0.65,3.45,0.92,4.27c1.07,0.52,2.49-0.57,2.13-1.76c-0.14-0.36-0.23-0.6-0.83-0.62
			c-0.24-0.02-0.41,0-0.57,0.19C335.94,149.84,335.86,150.18,335.87,150.51L335.87,150.51z"/>
	</g>
	<g>
		<path d="M348.71,246.02c6.97-5.87,17.15-9.02,25.82-5.07c4.48,2.16,8.43,5.34,12.04,8.69c2.06,1.9,4,3.92,6.14,5.49
			c4.28,3.3,10.16,3.15,15.15,1.85c0.51-0.18,1.08,0.09,1.22,0.62c0.06,0.21,0.04,0.42-0.04,0.6c-1.53,3.4-4.15,5.76-7.12,7.78
			c-7.28,4.58-21.65,7.44-29.54,3.49c6.3,2.41,13.37,0.82,19.67-0.83c5.45-1.59,10.81-4.35,14.1-9.08c0.43-0.64,0.86-1.38,1.1-1.99
			l1.18,1.22c-4.24,1.17-8.76,1.47-12.98,0.07c-4.14-1.48-7.13-5.01-10.2-7.83c-3.45-3.32-7.17-6.42-11.39-8.67
			C365.65,238.36,355.99,240.98,348.71,246.02L348.71,246.02z"/>
	</g>
	<g>
		<path d="M387.79,272.05c8.18-0.66,14.55,4.28,16.57,12.17c1.08,3.36,1.45,7.22,3.44,10.11c2.19,2.64,5.34,4.75,8.33,6.3
			c0.5,0.21,0.72,0.8,0.49,1.29c-0.14,0.29-0.41,0.48-0.71,0.53c-5.72,0.94-11.46,1.57-17.27,1.53
			c-13.95,0.35-21.19-5.62-29.5-16.01c-0.89-1.12-1.76-2.29-2.64-3.36c-2.86-3.17-7.27-4.39-11.47-4.5
			c4.27-0.31,8.97,0.77,12.13,3.88c1.02,1.08,1.9,2.18,2.85,3.26c3.74,4.28,7.79,8.36,12.58,11.24c4.72,3.02,10.42,3.5,16.06,3.53
			c5.64-0.04,11.35-0.55,16.93-1.45l-0.22,1.82c-3.41-1.85-6.56-4.06-8.95-7.08c-2.14-3.29-2.32-7.12-3.33-10.71
			C401.43,276.88,395.73,272.12,387.79,272.05L387.79,272.05z"/>
	</g>
	<g>
		<path d="M321.95,281.62c0.04,6.45,0.05,12.9,0.33,19.34c0.04,6.37,1.91,12.69,5.77,17.75c3.5,4.6,8.56,7.83,14.13,9.23
			c6.71,1.58,13.72,1.75,20.6,1.79c5.39,0.06,10.75-0.66,16.19-0.52c3.47,0.41,6.78,2.06,9.12,4.75c0,0-1.69,0.34-1.69,0.34
			c1.08-5.24,1.33-10.83,0.38-16.11c-2.5-11.03-9.25-28.35-23.34-25.51c-3.34,0.76-6.24,2.68-9.21,4.38
			c-3.16-1.14-6.44-2.8-9.95-2.87c3.44-0.01,6.78,1.1,9.93,2.44c0,0-0.24,0.01-0.24,0.01c2.34-1.51,4.66-3.01,7.24-4.18
			c2.66-1.05,5.59-1.48,8.42-0.88c5.74,1.16,9.91,5.83,12.81,10.61c5.85,9.69,8.27,21.4,5.82,32.54c-0.13,0.76-1.17,1.01-1.64,0.41
			c-2.67-3.02-6.88-4.39-10.89-3.93c-4.26,0.18-8.6,0.44-12.93,0.42c-7.04-0.1-14.19-0.34-21.05-2.02
			c-5.91-1.5-11.23-5.16-14.79-10.08c-3.87-5.36-5.75-12-5.52-18.55C321.42,294.52,321.61,288.06,321.95,281.62L321.95,281.62z"/>
	</g>
	<g>
		<path d="M236.19,240.23c-8.76-2.62-19.01-2.02-26.09,4.2c-3.69,3.02-5.83,7.15-9.53,10.32c-2,1.62-4.61,2.2-7.1,2.32
			c-2.48,0.1-4.87-0.2-7.29-0.93c0,0,1.27-1.25,1.27-1.25c4.11,9.73,19.9,14.07,29.55,12.1c0.72-0.19,1.5-0.44,2.05-0.77
			c3.1-1.62,6.15-3.25,9.48-4.41c3.34-0.93,7.21-0.53,10.2,1.25c-3.05-1.45-6.78-1.64-9.95-0.56c-1.57,0.64-3.09,1.46-4.6,2.27
			c-3.02,1.58-5.79,3.77-9.21,4.04c-9.19,0.94-20.52-1.78-26.74-8.99c-0.68-0.89-4-4.84-2.1-5.58c0.24-0.09,0.48-0.08,0.7,0
			c3.96,1.16,9.15,1.54,12.6-0.99c3.45-2.87,5.97-7.24,9.7-10.03C216.6,237.02,227.49,236.76,236.19,240.23L236.19,240.23z"/>
	</g>
	<g>
		<path d="M205.22,269.35c-7.83,0.06-12.67,5.31-14.07,12.7c-0.91,3.7-1.1,7.67-3.3,11c-2.25,2.68-4.83,4.83-7.92,6.59
			c0,0-0.23-1.75-0.23-1.75c6.07,1,12.32,1.64,18.44,1.33c3.05-0.18,6.09-0.61,8.77-1.83c2.71-1.21,5.13-3.13,7.36-5.22
			c2.23-2.1,4.26-4.45,6.22-6.86c1.91-2.52,4.02-5.06,6.81-6.64c5.26-3.44,12.14-4.95,18.17-2.89c-3.04-0.77-6.22-0.66-9.22,0.02
			c-6.04,1.45-11.22,5.27-14.57,10.45c-9.83,13.08-16.67,16.23-32.95,14.74c-3.15-0.28-6.27-0.67-9.39-1.28
			c-0.5-0.1-0.83-0.59-0.73-1.09c0.06-0.3,0.25-0.53,0.51-0.66c2.75-1.52,5.87-3.89,7.72-6.39c2.58-4.5,2.4-10.29,4.98-14.89
			C194.22,271.75,199.88,268.83,205.22,269.35L205.22,269.35z"/>
	</g>
	<g>
		<path d="M251.03,299.81c-0.86-3.13,0.53-7.04,3.9-8c3.1-1.02,7.04-1.09,9.32,1.7c1.46,1.81,1.94,4.12,2.03,6.31
			c0.05,8.76-3.67,17.75-10.75,23.14c-3.52,2.73-7.85,4.24-12.22,4.91c-8.54,1.27-17.21,1.52-25.81,1.58
			c-2.61,0.08-5.24-0.08-7.72,0.5c-1.09,0.4-2.52,1.18-3.23,2.16c0-0.01-0.01,0.04,0.02-0.08c0,0-1.84-0.01-1.84-0.01
			c-0.52-2.73-0.77-5.42-0.84-8.15c-0.71-11.5,7.16-36.32,21.53-35.18c4.18,0.32,7.58,2.99,10.9,5.28c0,0-0.24-0.01-0.24-0.01
			c1.44-0.69,2.92-1.27,4.45-1.72c1.52-0.44,3.1-0.76,4.69-0.74c-1.58,0.06-3.12,0.47-4.61,0.98c-1.48,0.53-2.94,1.15-4.31,1.89
			c-0.08,0.04-0.17,0.03-0.24-0.01c-2.22-1.42-4.51-2.92-6.92-3.92c-14.37-4.88-20.92,14.74-23.01,25.54
			c-0.78,5.16-0.53,10.55,0.44,15.65c0,0-1.84-0.01-1.84-0.01c0.05-0.18,0.06-0.19,0.09-0.27c0.96-1.65,2.61-2.51,4.35-3.22
			c2.72-0.72,5.58-0.55,8.3-0.66c8.56-0.06,17.11-0.17,25.58-1.38c4.1-0.6,8.14-1.95,11.46-4.48c6.73-4.87,10.54-13.42,10.69-21.75
			c-0.05-2.06-0.43-4.19-1.63-5.81c-1.84-2.55-5.67-2.62-8.49-1.79C251.81,293.08,250.4,296.66,251.03,299.81L251.03,299.81z"/>
	</g>
	<g>
		<path d="M282.3,300.2c-0.29,1.05-0.34,2.23,0.13,3.21c0.97,1.94,3.93,2.17,5.69,1.31c2.92-1.49,3.81-5.47,2.29-8.26
			c-3.1-6.19-10.63-7.62-16.48-4.46c-4.13,1.71-6.17,5.66-6.7,9.93c-0.56,4.19-1,8.58,1.07,12.49
			c5.54,11.05,17.21,16.82,25.12,25.89c0.79,0.99,3.23,4.11,0.85,4.53c-0.56,0-1-0.47-0.98-1.03c0.64-4.68,4.9-7.87,8.43-10.43
			c5.18-3.66,10.29-7.52,14.49-12.28c1.7-1.96,3.23-4.05,4.15-6.45c0.53-1.37,0.64-2.99,0.64-4.45c0.01-4.05-0.12-8.52-2.73-11.77
			c-3.85-4.45-11.53-6.51-16.68-3.17c-5.71,3.31-3.67,14.22,3.75,12.5c2.09-0.57,3.28-2.75,3.66-4.76c-0.15,1.06-0.49,2.1-1.07,3.02
			c-1.75,3.05-6.4,2.92-8.56,0.34c-2.13-2.59-2.37-6.58-0.65-9.45c3.2-4.98,10.15-5.26,15.13-3.12c7.27,2.55,8.91,9.49,8.81,16.42
			c0.11,2.31-0.33,4.52-1.35,6.59c-4.21,7.72-11.56,13.03-18.48,18.13c-3.04,2.22-6.24,4.66-7.44,8.31c-0.05,0.19-0.1,0.48-0.1,0.53
			c0,0-1.99-0.07-1.99-0.07c0,0.22,0,0.1-0.01,0.11c-1.87-3.69-5.32-6.31-8.41-9.02c-6.74-5.73-14.09-11.51-18.14-19.62
			c-2.17-4.12-1.78-9.01-1.03-13.49c0.63-4.59,3.18-9.11,7.69-10.83c6.42-3.25,14.55-1.58,17.71,5.29c1.88,3.58-0.13,9.03-4.46,9.39
			C283.25,305.73,281.15,303.56,282.3,300.2L282.3,300.2z"/>
	</g>
	<g>
		<path d="M329.38,128.85c8.5-10.15,8.11-25.87-0.96-35.45c-8.65-9.6-24.23-11.24-34.65-3.59c-13.35,9.36-14.98,28.99-3.58,40.65
			c-15.4-13.84-9.72-39.25,9.69-45.96C326.96,75.52,348.62,107.49,329.38,128.85L329.38,128.85z"/>
	</g>
	<g>
		<path d="M304.59,203.02c8.22-8.1,17.39-15.22,27.29-21.15C323.67,189.98,314.49,197.09,304.59,203.02L304.59,203.02z"/>
	</g>
	<g>
		<path d="M335.48,133.59c16.42-19.67,6.89-50.06-17.99-56.42c-24.83-6.17-47.53,15.72-42.43,40.73c1.29,6.64,4.66,12.85,9.41,17.77
			c-5.08-4.6-8.73-10.81-10.37-17.55c-6.17-26.15,17.9-49.5,43.86-42.79C343.73,82.01,353.68,113.93,335.48,133.59L335.48,133.59z"
			/>
	</g>
	<g>
		<path d="M389.79,133.47c-2.03-1.52-0.56-3.8,1.61-3.97c2.97,0.02,4.48,3.8,3.11,6.2c-2.45,4.87-9.62,2.53-9.56-2.59
			c0.01-1.18,0.3-2.28,0.74-3.29c-0.01,1.11-0.02,2.19,0.24,3.18c0.55,3.21,5.15,4.97,6.87,1.75c0.6-1.06,0.41-2.51-0.44-3.4
			C391.5,130,388.17,131.22,389.79,133.47L389.79,133.47z"/>
	</g>
	<path class="st2" d="M309.1,130.9c-0.3,0-0.56-0.18-0.68-0.47c-0.08-0.19-0.09-0.38-0.11-0.52l-0.05-0.56
		c-0.03-0.33-0.17-0.59-0.42-0.81c-0.57-0.51-0.82-1.18-0.73-1.94c0.13-1.05,1.04-1.85,2.08-1.76c1.09,0.07,1.9,0.95,1.89,2.04
		c-0.01,0.65-0.21,1.16-0.62,1.51c-0.4,0.34-0.58,0.79-0.59,1.45c0,0.21-0.05,0.4-0.1,0.54c-0.1,0.32-0.35,0.51-0.67,0.52
		C309.12,130.9,309.11,130.9,309.1,130.9z M309.08,125.33c-0.65,0-1.22,0.52-1.31,1.21c-0.07,0.58,0.1,1.06,0.54,1.45
		c0.36,0.32,0.63,0.7,0.8,1.12c0.21-0.52,0.54-0.97,0.98-1.35c0.24-0.2,0.36-0.54,0.36-1.03l0,0c0.01-0.77-0.54-1.36-1.3-1.41
		C309.13,125.34,309.1,125.33,309.08,125.33z M309.1,127.49C309.1,127.49,309.1,127.49,309.1,127.49c-0.36,0-0.66-0.29-0.66-0.65
		c0-0.36,0.28-0.66,0.64-0.67c0.16,0,0.35,0.06,0.48,0.19c0.13,0.12,0.2,0.3,0.2,0.48c0,0.18-0.07,0.34-0.19,0.46
		C309.44,127.42,309.28,127.49,309.1,127.49z M309.05,126.84c0,0,0,0.02,0.01,0.03C309.06,126.87,309.05,126.84,309.05,126.84z"/>
</g>
<g>
	<g>
		<path d="M218.18,175.43c0.41-4.76-1.57-10.05-6.98-10.28c-0.58-0.09-1.4-0.05-1.98,0c-4.85,0.44-10.2,0.13-14.36-2.68
			c-3.16-2.42-3.53-7.25-1.31-10.41c1.63-2.71,4.95-3.32,7.83-3.71c13.08-2.15,22.01,3.23,27.63,15.02
			c5.05,10.31,2.73,21.88,3.06,32.86c0.21,5.38,0.12,11.17,2.86,15.97c-3.14-4.62-3.32-10.54-3.84-15.93
			c-0.85-10.74,1.23-22.15-3.8-32.09c-5.33-10.93-13.46-15.86-25.64-13.95c-2.46,0.37-5.2,0.53-6.66,2.83
			c-2.25,3.05-1.23,7.81,2.41,9.23c3.66,1.7,7.77,2.14,11.79,1.89c1.04-0.05,2.18,0.06,3.18,0.29
			C217.4,165.61,218.93,170.9,218.18,175.43L218.18,175.43z"/>
	</g>
	<g>
		<path d="M180.73,162.48c2.8-0.07,5.5-1.05,8.28-1.46c2.79-0.43,5.51-0.86,8.23-1.5c0,0-0.61,0.57-0.61,0.57
			c-0.06,0.34-0.03,0.26,0.01,0.45c0.03,0.07,0.07,0.12,0.05,0.1c-0.21-0.14-0.48-0.24-0.75-0.34c-0.53-0.18-1.11-0.3-1.58-0.65
			c-1.16-0.87-1.41-2.17-1.71-2.97c-0.05-0.19-0.2-0.38-0.07-0.23c0.03,0.04,0.16,0.11,0.23,0.12c0.17,0.07,0.56-0.1,0.63-0.23
			c-0.62,1.61-2.57,2.36-4.09,2.84c-2.86,0.95-6.26,2.38-9.04,2.58c0.16-0.11,0.27-0.56,0.14-0.71c0.04,0.11,0.66,0.6,0.97,0.75
			c0.49,0.27,0.49,1.02,0.02,1.3c-0.04,0.02-0.12,0.21-0.08,0.09c0-0.04-0.01-0.2-0.09-0.28c2.45,0.03,6.41-0.52,9.35-0.23
			c3.68,0.45,7.45,0.95,10.97-0.66c-4.93,3.26-11.04,1.27-16.52,2.34c-1.6,0.12-2.95,0.62-4.64,0.1c-1.15-0.46-1.07-1.89-0.36-2.61
			c0,0,0.22,1.42,0.22,1.42c-1-0.51-2.44-1.86-1.24-2.96c0.17-0.15,0.26-0.19,0.38-0.24c1.33-0.4,2.35-0.38,3.72-0.9
			c1.85-0.58,3.7-1.23,5.56-1.86c0.97-0.37,2.1-0.57,2.75-1.37c0.15-0.18,0.31-0.6,0.54-0.85c0.39-0.52,1.37-0.53,1.82-0.08
			c0.49,0.5,0.5,0.8,0.61,1.06c0.39,1.24,0.49,2.01,1.37,2.37c0.89,0.33,2.11,0.61,2.42,1.66c0.09,0.32-0.12,0.95-0.6,0.99
			c-2.79,0.51-5.66,0.76-8.46,0.94C186.67,162.18,183.17,162.87,180.73,162.48L180.73,162.48z"/>
	</g>
	<g>
		<path d="M200.93,143.89c-1.66-1.07-1.8-3.32,0.2-4.21c1.96-0.81,3.92,1.34,3.78,3.29c-0.3,2.05-2.28,2.72-3.57,3.76
			c-1.1,0.7-1.74,2.51-2.32,3.6c0,0-1.54-1.13-1.54-1.13c1.69-1.62,3.64-2.86,5.83-3.63c2.71-1.17,4.86-3.77,4.45-6.8
			c-0.11-0.97-0.42-1.93-1.14-2.36c-0.67-0.47-1.79-0.23-2.21,0.61c-0.5,0.85-0.12,2.02,0.74,2.73c-1.04-0.52-1.75-1.79-1.33-2.97
			c0.38-1.25,2.02-2,3.3-1.34c2.32,1.26,2.56,4.44,1.88,6.74c-0.9,2.68-3.18,4.58-5.7,5.51c-1.64,0.67-3.2,1.75-4.5,2.93
			c-0.39,0.36-1.01,0.34-1.37-0.06c-0.28-0.31-0.33-0.75-0.14-1.1c0.38-0.72,0.7-1.38,1.13-2.14c0.45-0.8,1.15-1.52,1.89-2
			c1.39-0.96,3.04-1.52,3.2-2.51c0.17-1-0.83-2.66-2.12-2.31C199.74,140.97,199.8,142.76,200.93,143.89L200.93,143.89z"/>
	</g>
	<g>
		<path d="M208.91,144.69c-0.59-1.87,0.81-3.71,2.89-3.07c2.01,0.66,2.11,3.57,0.74,4.96c-1.56,1.37-3.5,0.59-5.15,0.54
			c-1.29-0.18-2.95,0.77-4.1,1.23c0,0-0.43-1.86-0.43-1.86c2.33-0.13,4.63,0.19,6.79,1.03c2.82,0.87,6.14,0.3,7.8-2.28
			c0.54-0.8,0.93-1.74,0.67-2.54c-0.21-0.79-1.21-1.34-2.07-0.97c-0.94,0.32-1.4,1.46-1.21,2.55c-0.45-1.08-0.17-2.49,0.92-3.12
			c1.1-0.7,2.83-0.2,3.38,1.12c0.95,2.47-0.94,5.04-2.95,6.35c-2.43,1.45-5.39,1.42-7.92,0.49c-1.68-0.55-3.57-0.75-5.32-0.7
			c-1.07,0.05-1.38-1.49-0.39-1.86c1.53-0.62,3.27-1.46,4.98-1.19c1.68,0.17,3.29,0.82,4.06,0.17c0.78-0.65,1.1-2.56-0.12-3.13
			C209.93,141.69,208.77,143.11,208.91,144.69L208.91,144.69z"/>
	</g>
	<g>
		<path d="M217.42,177.32c-1.48,5.09-4.99,16.48-6.18,21.45c-3.91,13.56-0.49,23.39,10.7,31.99c-2.21-1.16-4.24-2.66-6.14-4.32
			c-11.32-9.91-8.69-22.8-4.1-35.3C213.37,186.43,215.25,181.81,217.42,177.32L217.42,177.32z"/>
	</g>
	<g>
		<path d="M203.85,155.77c-0.25,2.59-4.14,2.48-4-0.38C200.24,152.55,204.09,153.17,203.85,155.77L203.85,155.77z M203.85,155.77
			c0.1-1.48-1.98-1.66-2.01-0.19C201.58,157.03,203.67,157.24,203.85,155.77L203.85,155.77z"/>
	</g>
</g>
<g>
	<path d="M235.89,224.97c-6.05-0.76-11.93-4.95-13.2-11.19c-1.41-6.16,0.66-13.1,5.84-16.92c3.79-2.9,8.88-3.92,13.5-2.83
		c7.26,2.3,13.17,7.63,18.83,12.41c-4.94-3.27-9.93-6.6-15.22-9.2c-5.04-2.76-11.46-2.17-15.91,1.2c-5.73,4.18-7.44,12.8-4.18,19.02
		C227.68,221.34,231.65,223.8,235.89,224.97L235.89,224.97z"/>
</g>
<g>
	<g>
		<g>
			<path d="M344.9,234c6.85,0.35,11.37-5.51,16.65-8.95c1.41-0.91,2.87-1.84,4.69-2.29c2.81-0.88,6.34,1.17,6.18,4.38
				c0.01,3.74-4.05,3.86-5.86,1.26c1.02,0.91,3.05,1.52,4.09,0.62c0.84-0.94,0.52-2.75-0.32-3.63c-2.23-2.23-5.43-0.19-7.65,1.31
				C357.52,230.07,351.71,236.07,344.9,234L344.9,234z"/>
		</g>
		<g>
			<path d="M361.81,229.95c6.19,2.96,12.61-0.72,18.81-1.87c1.65-0.3,3.36-0.6,5.21-0.31c2.95,0.29,5.39,3.48,4.02,6.42
				c-1.46,3.47-5.2,2.02-5.89-1.09c0.59,1.24,2.23,2.58,3.53,2.14c1.14-0.54,1.53-2.34,1.1-3.47c-1.2-2.92-4.94-2.26-7.57-1.73
				C374.97,231.17,367.3,234.47,361.81,229.95L361.81,229.95z"/>
		</g>
		<g>
			<path d="M371.19,228.86c6.85,0.35,11.37-5.51,16.65-8.95c1.41-0.91,2.87-1.84,4.69-2.29c2.81-0.88,6.34,1.17,6.18,4.38
				c0.01,3.74-4.05,3.86-5.86,1.26c1.02,0.91,3.05,1.52,4.09,0.62c0.84-0.94,0.52-2.75-0.32-3.63c-2.23-2.23-5.43-0.19-7.65,1.31
				C383.81,224.94,378,230.93,371.19,228.86L371.19,228.86z"/>
		</g>
		<g>
			<path d="M388.1,224.81c6.19,2.96,12.61-0.72,18.81-1.87c1.65-0.3,3.36-0.6,5.21-0.31c2.95,0.29,5.39,3.48,4.02,6.42
				c-1.46,3.47-5.2,2.02-5.89-1.09c0.59,1.24,2.23,2.58,3.53,2.14c1.14-0.54,1.53-2.34,1.1-3.47c-1.2-2.92-4.94-2.26-7.57-1.73
				C401.26,226.03,393.59,229.34,388.1,224.81L388.1,224.81z"/>
		</g>
	</g>
	<g>
		<g>
			<path d="M361.91,237.47c4.11,2.06,8.97,1.76,13.32,0.7c6.87-1.47,22.91-9.88,26.48-0.2c1.28,3.99-2.34,9.08-6.34,5.66
				c-0.95-0.77-1.61-1.82-1.94-2.93c1.44,2.94,5.82,4.96,6.9,0.72c0.98-3.11-1.67-6.04-4.79-6.09c-6.8-0.13-13.21,3.13-19.98,4.36
				C370.99,240.51,365.74,240.35,361.91,237.47L361.91,237.47z"/>
		</g>
		<g>
			<path d="M396.51,243.39c5.13,4.2,12.09,0.85,17.86,3.36c2.15,0.89,3.29,3.89,1.55,5.79c-1.85,2.23-4.42,0.37-4.14-2.15
				c0.19,0.97,1.13,2.27,2.08,2.18c0.83-0.16,1.44-1.33,1.35-2.14c-0.3-2.2-2.98-2.43-4.91-2.62
				C405.73,247.34,399.34,247.97,396.51,243.39L396.51,243.39z"/>
		</g>
		<g>
			<path d="M400.14,241.19c6.3,2.71,12.58-1.21,18.72-2.6c1.63-0.36,3.33-0.73,5.19-0.52c2.96,0.18,5.52,3.27,4.27,6.26
				c-1.32,3.52-5.11,2.22-5.93-0.86c0.64,1.21,2.33,2.49,3.61,2c1.12-0.59,1.44-2.4,0.97-3.51c-1.31-2.87-5.02-2.06-7.63-1.43
				C413.34,241.89,405.81,245.5,400.14,241.19L400.14,241.19z"/>
		</g>
		<g>
			<path d="M416.61,244.55c2.68,3.04,6.75,4.41,10.65,5c6.19,1.11,22.13-0.34,21.76,8.91c-0.31,3.73-5.09,6.72-7.21,2.48
				c-0.51-0.96-0.68-2.05-0.56-3.07c0.12,1.76,1.42,4.07,3.21,4.18c1.68-0.12,2.99-2.1,3.01-3.71
				C447.07,248.69,422.83,256,416.61,244.55L416.61,244.55z"/>
		</g>
	</g>
	<g>
		<g>
			<path d="M404.18,249.75c4.75,4.95,12.06,3.77,18.26,4.88c1.65,0.3,3.35,0.63,4.98,1.54c2.66,1.32,3.82,5.15,1.5,7.42
				c-2.59,2.73-5.57,0.06-5.13-3.1c0.12,1.37,1.18,3.2,2.55,3.25c1.26-0.11,2.26-1.65,2.26-2.86c-0.09-3.15-3.83-3.85-6.48-4.28
				C416.06,255.53,407.72,255.92,404.18,249.75L404.18,249.75z"/>
		</g>
		<g>
			<path d="M419.28,258.37c2.49,6.39,9.69,8.11,14.99,11.52c1.4,0.91,2.85,1.87,4.01,3.34c1.95,2.24,1.55,6.22-1.46,7.43
				c-3.44,1.53-5.17-2.09-3.55-4.83c-0.41,1.31-0.14,3.41,1.11,3.98c1.2,0.38,2.72-0.66,3.18-1.78c1.13-2.95-2.06-5.03-4.34-6.44
				C428.04,268.27,420.18,265.44,419.28,258.37L419.28,258.37z"/>
		</g>
		<g>
			<path d="M388.51,226.11c4.75,4.95,12.06,3.77,18.26,4.88c1.65,0.3,3.35,0.63,4.98,1.54c2.66,1.32,3.82,5.15,1.5,7.42
				c-2.59,2.73-5.57,0.06-5.13-3.1c0.12,1.37,1.18,3.2,2.55,3.25c1.26-0.11,2.26-1.65,2.26-2.86c-0.09-3.15-3.83-3.85-6.48-4.28
				C400.39,231.89,392.05,232.28,388.51,226.11L388.51,226.11z"/>
		</g>
		<g>
			<path d="M428.59,256.21c5.96,8.08,16.96,7.51,25.8,9.91c3.56,0.99,7.73,2.18,9.56,5.77c1.3,2.42,0.68,5.68-1.4,7.44
				c-2.4,2.16-5.25,1.7-6.49-1.35c-0.49-1.16-0.59-2.43-0.35-3.6c-0.07,2.08,1.14,4.92,3.25,5.28c2.08,0.04,3.79-2.1,4.04-4.03
				C463.69,264.13,434.73,270.06,428.59,256.21L428.59,256.21z"/>
		</g>
	</g>
</g>
</svg>
